<svg viewBox="0 0 30 22" fill="#666" xmlns="http://www.w3.org/2000/svg"><path d="M0 5.5C0 4.6.7 4.2 1.8 4H6c.3 0 .5.2.6.4A18 18 0 008 7.8a39.5 39.5 0 002.5 3.3l.4-.1V6.3c0-.3 0-.5-.2-.6l-.9-.2c-.3 0-.5-.2-.5-.5v-.2c.4-1 1.6-1.6 3.5-1.6h1.6c.7 0 1.3.1 1.8.4.4.3.7.9.7 1.5v5.7l.3.2c.3 0 .6-.2.8-.5a17.5 17.5 0 003.4-5.3c.2-.2.4-.5.7-.6l.8-.4h5c.3 0 .6.1.9.4l.1.4a2.3 2.3 0 010 .5v.2c0 .7-.4 1.4-1 2.2-.5.8-1.2 1.6-2 2.5a28 28 0 00-1.6 1.8l-.2.6.2.4 4.2 4.6c.2.3.3.6.3 1 0 .3-.2.6-.5.9-.3.2-.8.4-1.2.4H22c-.4 0-.8-.1-1.2-.4a246.2 246.2 0 01-3-3.3 36.3 36.3 0 00-.6 2.2v.4c-.3.6-.7 1-1.3 1.1H12.7c-1.6 0-3.1-.6-4.7-1.9-1.6-1.3-3-3-4.3-5A46.1 46.1 0 01.1 5.6zM17.3 12a2 2 0 01-1-.3c-.4-.2-.5-.4-.5-.8V5.1c0-.3-.1-.5-.3-.7l-1-.2h-1.6c-.9 0-1.5.2-1.9.4.8.4 1.3 1 1.3 1.7v4.5c0 .4-.3.7-.6 1-.3.3-.7.4-1.1.4-.6 0-1-.2-1.4-.7-1.4-2-2.5-3.9-3.3-5.6l-.2-.7H1.4V6L2 7.3C3.6 11 5.3 13.8 7.2 16c1.9 2.1 3.7 3.2 5.5 3.2h2.9l.2-.1.2-.4v-.2l.6-2.2c.1-.3.2-.5.4-.6.2-.2.4-.3.7-.3.5 0 1 .2 1.4.7l2.4 2.7c.2.3.3.4.5.4h4.7c.6 0 .9-.2.9-.4l-.1-.3-4.1-4.5c-.4-.4-.5-.7-.5-1.1 0-.4.1-.8.4-1.2l1.5-1.7 1.8-2.2A6 6 0 0027.7 6v-.3-.2-.2h-4.5l-.6.5-.2.4a25 25 0 01-3.8 5.4c-.4.3-.8.5-1.4.5z"/></svg>
