<svg width="25" height="30" fill="none" xmlns="http://www.w3.org/2000/svg"><path fill-rule="evenodd" clip-rule="evenodd" d="M18.6 0c.4 0 .8 0 1.1.3 1 .9 2.1 2.9 3 6 1 3 1.8 7.2 1.8 12.7 0 .6-.4 1-1 1H20v9a1 1 0 11-2 0V1c0-.4.2-.8.6-1zM20 18h2.5A39.6 39.6 0 0020 4.5V18zM6 0c.6 0 1 .4 1 1v28a1 1 0 11-2 0V1c0-.6.4-1 1-1z" fill="#fff"/><path fill-rule="evenodd" clip-rule="evenodd" d="M1.5 0c.6 0 1 .4 1 1v5.5c0 .6.2 1.3.7 2 .5.5 1.3 1 2.8 1a1 1 0 110 2c-2 0-3.4-.7-4.3-1.8A5 5 0 01.5 6.5V1c0-.6.4-1 1-1z" fill="#fff"/><path fill-rule="evenodd" clip-rule="evenodd" d="M10.5 0a1 1 0 00-1 1v5.5a3 3 0 01-.7 2c-.5.5-1.3 1-2.8 1a1 1 0 000 2c2 0 3.4-.7 4.3-1.8a5 5 0 001.2-3.2V1c0-.6-.4-1-1-1z" fill="#fff"/></svg>