<svg width="29" height="31" fill="none" xmlns="http://www.w3.org/2000/svg"><g clip-path="url(#clip0)" fill="#fff"><path d="M20.8 18.5c-1.7 0-3.1 1.5-3.1 3.3 0 1.8 1.4 3.3 3 3.3 1.8 0 3.2-1.5 3.2-3.3 0-1.8-1.4-3.3-3.1-3.3zm0 5c-1 0-1.6-.8-1.6-1.7 0-1 .7-1.7 1.6-1.7.9 0 1.6.7 1.6 1.7s-.7 1.7-1.6 1.7zM11.6 0C9.8 0 8.4 1.5 8.4 3.4s1.4 3.4 3.2 3.4c1.8 0 3.2-1.5 3.2-3.4S13.4 0 11.6 0zm0 5.5c-1 0-2-1-2-2.1s1-2 2-2 2 .9 2 2-1 2-2 2zM8.2 17.6C7 17.6 6 18.7 6 20.1s1 2.5 2.3 2.5c1.3 0 2.4-1.1 2.4-2.5s-1-2.5-2.4-2.5zM8 19.5c-.5 0 1.2 1.1 1.2.6 0-.5-1.7.4-1.2.4s1-.9 1-.4-.5-.6-1-.6zM18.5 9.8s3-.9 6.2 1.5c.9.7 1.7 1.3 1.1 2-.3.4-.6.7-1.7-.4a7 7 0 00-5.6-1.5c-1.1.2-2 .6-3.6 2.2A8.3 8.3 0 018.4 16a8.1 8.1 0 01-5.2-2.6c-.3-.4-.3-.9-.1-1.1.1-.3.8-.5 1.2-.1.3.3 2 2 3.8 2 1.7.1 3.4.2 5.7-2 2.3-2.1 3.5-2.3 4.7-2.5z"/><mask id="a"><path d="M28.6 26.8V8.2c0-.6-.3-.7-.5-.7h-.5c-.5 0-.5.6-.5.7v18.6c0 .4-.1 1.2-.8 2-.9.6-1.7.5-1.7.5H4c-.4 0-1-.2-1.6-1-.6-.8-.5-1.9-.5-1.9v-18c0-1-.7-.9-.7-.9H1c-.5 0-.5.6-.5.8v18.5c0 1.4.4 2.4 1.5 3.4 1.1.9 2.4.8 2.4.8h20.6c.8 0 2-.4 2.9-1.5.9-1.2.8-2.7.8-2.7z"/></mask><path d="M28.6 26.8V8.2c0-.6-.3-.7-.5-.7h-.5c-.5 0-.5.6-.5.7v18.6c0 .4-.1 1.2-.8 2-.9.6-1.7.5-1.7.5H4c-.4 0-1-.2-1.6-1-.6-.8-.5-1.9-.5-1.9v-18c0-1-.7-.9-.7-.9H1c-.5 0-.5.6-.5.8v18.5c0 1.4.4 2.4 1.5 3.4 1.1.9 2.4.8 2.4.8h20.6c.8 0 2-.4 2.9-1.5.9-1.2.8-2.7.8-2.7z"/><path d="M28.6 26.8h-20v.8l20-.8zm-.5-19.3l.7-20h-.7v20zm-1 .7L7 8.1v.1h20zm0 .1H7h20zm0 18.5l-20-.7 20 .7zm-.8 2l13 15 .4-.3.4-.4-13.8-14.4zm-1.7.5L27 9.5l-1.1-.2h-1.2v20zM4 29.3L.6 49l1.1.2H3l1-19.9zm-1.6-1L-14 39.8 2.4 28.3zm-.5-1.9l20 2.1v-2H2zM1.2 7.5v20H2l-.8-20zm-.8.8l-20-.3V8.3h20zm1.5 21.9l-13 15.1 13-15.1zm2.4.8V11H3l1.3 20zm23.5-1.5L43.3 42 27.8 29.5zm20.8-2.7V8.2h-40v18.6h40zm0-18.6a20.6 20.6 0 00-19.8-20.7l-1.4 40A19.5 19.5 0 018.6 8.2h40zM28.1-12.5h-.5v40h.5v-40zm-.5 0A20.5 20.5 0 007.1 8.1l40 .3c0 .7 0 3.9-1.7 7.6a19.5 19.5 0 01-17.8 11.5v-40zM7.1 8.2h40H7zm0 0v.1h40H7zm0 .1v10.5a8367 8367 0 010 7.3c0 .8 0 .4 0 0l40 1.5v-1.5a1362.3 1362.3 0 000-7.3V8.3H7zm0 17.8c0-1.4.4-7 5.3-11.8L40 43.1a22.7 22.7 0 007-15.5L7 26zm6.1-12.5a17.5 17.5 0 0113.6-4.1l-2.2 19.8-2.2 20a14.8 14.8 0 001.3 0 21.4 21.4 0 005.6-.4c3-.7 6.6-2.1 10-5l-26-30.3zm11.4 15.7v-20h-.8A17598 17598 0 015 9.3c-1 0-.6 0 0 0l-2.2 40H24.6v-20zM7.4 9.6a17.6 17.6 0 0111.3 7.2l-32.7 23C-9 47-2 48.6.6 49L7.4 9.6zm11.3 7.2a17.3 17.3 0 013.1 11.7L2 26.5-18 24.3a19.7 19.7 0 000 5c.3 2.2 1.1 6.3 4 10.4l32.7-23zm3.2 9.6v-18h-40v18h40zm0-18A20.7 20.7 0 00.5-12.6l.7 20 .8 20a28.6 28.6 0 01-4-.3A19.3 19.3 0 01-18 8.3h40zM1.2-12.6H1v40h.3v-40zm-.3 0A20.5 20.5 0 00-19.6 8l40 .6c0 .7 0 4-1.8 7.7A19.4 19.4 0 01.9 27.5v-40zM-19.6 8.3V26.9h40v-.1-.1-.1-.1-.1-.1-.1-.1-.1-.1-.1-.1-.1-.1-.1-.1-.1-.1-.1-.1-.1-.1-.1-.1-.1-.1-.1-.1-.1-.1-.1-.1-.1-.1-.1-.1-.1-.1-.1-.1-.1-.1-.1-.1-.1-.1-.1-.1-.1-.1-.1-.1-.1-.1-.1-.1-.1-.1-.1-.1-.1-.1-.1-.1-.1-.1-.1-.1-.1-.1-.1-.1-.1-.1-.1-.1-.1-.1-.1-.1-.1-.1-.1-.1-.1-.1-.1-.1-.1-.1-.1-.1-.1-.1-.1-.1-.1-.1-.1-.1-.1-.1-.1-.1-.1-.1-.1-.1-.1-.1-.1-.1-.1-.1-.1-.1-.1-.1-.1-.1-.1-.1-.1-.1-.1-.1-.1-.1-.1-.1-.1-.1-.1-.1-.1-.1-.1-.1-.1-.1-.1-.1-.1-.1-.1-.1-.1-.1-.1-.1-.1-.1-.1-.1-.1-.1-.1-.1-.1-.1-.1-.1-.1-.1-.1-.1-.1-.1-.1-.1-.1-.1-.1-.1-.1-.1V9 9v-.1-.1-.1-.1-.1-.1-.1h-40zm0 18.5c0 7 2.9 13.7 8.5 18.5l26-30.3a15.6 15.6 0 015.5 11.8h-40zm8.5 18.5A23.6 23.6 0 005.4 51h.1L4.3 31 3 11a429.6 429.6 0 012 0 16.4 16.4 0 0110 4l-26.1 30.3zM4.3 31v20H25l-.1-40h-.1H4.5h-.2v20zm20.6 20c7.1 0 13.8-3.3 18.4-8.9l-31-25.3C15 13.5 19.4 11 24.8 11l.1 40zm18.4-8.9a24 24 0 005.3-16l-20 .7-20 .8a18.4 18.4 0 01.3-3.8 16 16 0 013.4-7l31 25.3z" mask="url(#a)"/></g><defs><clipPath id="clip0"><path fill="#fff" d="M0 0h29v31H0z"/></clipPath></defs></svg>