<svg width="32" height="33" fill="none" xmlns="http://www.w3.org/2000/svg"><circle cx="21.2" cy="11.3" fill="#fff" r="1.1"/><circle cx="10.3" cy="11.3" fill="#fff" r="1.1"/><circle cx="10.3" cy="24.4" fill="#fff" r="1.1"/><circle cx="15.8" cy="26.5" fill="#fff" r="1.1"/><circle cx="7.1" cy="17.8" fill="#fff" r="1.1"/><circle cx="24.5" cy="17.8" fill="#fff" r="1.1"/><circle cx="21.2" cy="24.4" fill="#fff" r="1.1"/><mask id="a" fill="#fff"><path fill-rule="evenodd" clip-rule="evenodd" d="M21 29a1 1 0 011.1.3L24 31a.7.7 0 001-1l-1.4-1.3c-.4-.5-.4-1.2 0-1.6 2.7-2.3 4.4-5.7 4.4-9.6C28 10.6 22.5 5 15.8 5 9 5 3.5 10.6 3.5 17.6c0 3.8 1.7 7.2 4.3 9.6a1 1 0 010 1.5l-1.4 1.5a.7.7 0 101 1l1.9-2a1 1 0 011.2-.2A11.9 11.9 0 0021 29zm-5.2-.2c6 0 10.8-5 10.8-11.2A11 11 0 0015.8 6.4c-6 0-11 5-11 11.2a11 11 0 0011 11.2zM15 17.3V9.9a.8.8 0 111.6 0V18.1c0 .5-.4.8-.8.8a.8.8 0 01-.8-.7v-.9z"/></mask><path fill-rule="evenodd" clip-rule="evenodd" d="M21 29a1 1 0 011.1.3L24 31a.7.7 0 001-1l-1.4-1.3c-.4-.5-.4-1.2 0-1.6 2.7-2.3 4.4-5.7 4.4-9.6C28 10.6 22.5 5 15.8 5 9 5 3.5 10.6 3.5 17.6c0 3.8 1.7 7.2 4.3 9.6a1 1 0 010 1.5l-1.4 1.5a.7.7 0 101 1l1.9-2a1 1 0 011.2-.2A11.9 11.9 0 0021 29zm-5.2-.2c6 0 10.8-5 10.8-11.2A11 11 0 0015.8 6.4c-6 0-11 5-11 11.2a11 11 0 0011 11.2zM15 17.3V9.9a.8.8 0 111.6 0V18.1c0 .5-.4.8-.8.8a.8.8 0 01-.8-.7v-.9z" fill="#fff"/><path d="M9.3 29.2L12 32l-2.8-2.8zm1.2-.2l1.8-3.6-1.8 3.6zm-3.1 2.1l-2.9-2.8 2.9 2.8zm-1-1L9.3 33l-2.9-2.8zm17.2-1.3l-2.9 2.8 2.9-2.8zm0-1.6l-2.6-3 2.7 3zm-15.8 0l-2.7 3 2.7-3zm0 1.5L5 26l2.9 2.8zM25 30.2l3-2.8-3 2.8zm-1 1l3-2.9-3 2.8zm-1.8-2L19.3 32l2.8-2.7zm-1.2-.1l-1.7-3.6 1.7 3.6zm-1.6 3l1.8 1.8 5.7-5.6-1.8-1.8-5.7 5.5zm8.5-4.7L26.4 26l-5.7 5.6 1.4 1.4 5.7-5.6zm-1.5 2.8c3.5-3 5.7-7.6 5.7-12.6h-8c0 2.7-1.2 5-3 6.6l5.3 6zM32 17.6C32 8.6 24.8 1 15.8 1v8c4.4 0 8.2 3.7 8.2 8.6h8zM15.8 1C6.7 1-.5 8.6-.5 17.6h8c0-4.9 3.8-8.6 8.3-8.6V1zM-.5 17.6c0 5 2.2 9.5 5.6 12.5l5.3-6a8.8 8.8 0 01-2.9-6.5h-8zM5 26l-1.4 1.5L9.3 33l1.4-1.5L5 25.9zm5.3 8l1.8-2-5.7-5.5-1.9 2 5.8 5.5zm-1.6-1.3c2.2 1 4.6 1.6 7 1.6v-8c-1.2 0-2.4-.3-3.4-.8l-3.6 7.2zm7 1.6c2.5 0 4.9-.5 7-1.5l-3.5-7.2c-1 .5-2.2.7-3.4.7v8zm0-1.4a15 15 0 0015-15.2h-8a7 7 0 01-7 7.2v8zm15-15.2a15 15 0 00-15-15.2v8a7 7 0 017 7.2h8zm-15-15.2A15 15 0 001 17.6h8a7 7 0 016.9-7.2v-8zM1 17.6a15 15 0 0014.9 15.2v-8a7 7 0 01-7-7.2h-8zm11.7-.3v.5h8v-.5h-8zm0 .5v.3h8v-.3h-8zm6.4.4v-.4h-8v.4h8zm0-.4v-.5h-8v.5h8zm0-.5v-3.8h-8v3.8h8zm0-3.8V9.9h-8v3.6h8zm-6.4-3.6v3.6h8V9.9h-8zm0 3.6v3.8h8v-3.8h-8zm3.2-8.3A4.8 4.8 0 0011 9.9h8c0 1.8-1.4 3.3-3.2 3.3v-8zm-3.2 13c0-1.8 1.4-3.3 3.2-3.3v8c2.6 0 4.8-2.1 4.8-4.8h-8zM12 32a3 3 0 01-3.4.6l3.6-7.2a5 5 0 00-5.9 1l5.7 5.6zm-8.5 2a4.7 4.7 0 006.7 0l-5.8-5.7a3.3 3.3 0 014.8 0L3.6 34zm0-6.6a4.7 4.7 0 000 6.5l5.7-5.6a3.3 3.3 0 010 4.7l-5.7-5.6zM26.5 26a3 3 0 01-.2 4.2l-5.3-6a5 5 0 00-.3 7.4l5.8-5.6zM15.8 13.2a3.2 3.2 0 01-3.2-3.3h8c0-2.6-2.2-4.7-4.8-4.7v8zM5 30.2a3 3 0 01-.1-4.3l5.7 5.6a5 5 0 00-.3-7.3l-5.3 6zm22.7 3.7a4.7 4.7 0 000-6.5L22.1 33a3.3 3.3 0 010-4.7l5.7 5.6zm-6.7 0a4.7 4.7 0 006.7 0l-5.7-5.6a3.3 3.3 0 014.7 0L21.1 34zm-5.3-19c1.8 0 3.2 1.5 3.2 3.3h-8c0 2.6 2.1 4.7 4.8 4.7v-8zM25 26.5a5 5 0 00-5.8-1l3.5 7.2a3 3 0 01-3.4-.7l5.7-5.5z" fill="#fff" mask="url(#a)"/><path fill="#fff" d="M15 6V2h1.5v4z"/><rect x="8" y="2" width="15.5" height="1.5" rx=".8" fill="#fff"/></svg>